<svg xmlns="http://www.w3.org/2000/svg" viewBox="0 0 36 36"><circle cx="18" cy="18" r="18" fill="#88c9f9"/><path fill="#5c913b" d="M25.7 1.8c-1 .5-1.9 1.5-3 1.1-1.9-.5-4.4-1.8-6-.2s-2 3 0 3S20 3.1 21 4.1s.7 1.8-1.7 2.1-4.9.7-6.3.7-1.7.8-.7 1.7-.6 1-2.2 1.8.4 1.3 1.7 2 2.4-.2 3-1.4 2.9-2.8 3.9-2.6 1 .7.8 1.6.8.6.8-.4 1.2-1.8 2.1-1.8 1.6 1.2.6 1.8-2 1.1-.7 1.4 2.1 2 .7 2.7-4 1-5.1.5-3.7-1.4-4.4-1-1 1-1.8 1.3-4.2 1.8-4.2 3.7-.2 4.1 1.2 4.2 4.4-.8 5.4-1.6 2.4-.6 2.9.3 0 1.5-.4 3 .3 2.2 1 3.5c.7 1.4 1.3 2.1 1.3 3s1 2 2.5.4 2.9-4.7 3.5-5.8 1.1-3.6 1.9-4.1 2-1.7 1-1.5-2.6 0-3-1.3-2.3-3.7-1.5-3.9 2 1.4 2.3 2.2c.4.7.9 1.7 1.6 2s2.4-1.7 2.9-2 .1-1.5-.9-1.4-2.3 0-2.3-.6 1.3-1.4 2.3-1.3 1.7.5 2.3 1.3 1.9 2.1 2.4 3 .9 1 1.1-.6l.6-2.2a18 18 0 0 0-10-13.1"/></svg>